<svg width="22" height="11" viewBox="0 0 22 11" fill="none" xmlns="http://www.w3.org/2000/svg">
<path d="M21.757 4.72178C21.7568 4.72152 21.7565 4.72122 21.7562 4.72096L17.264 0.250352C16.9274 -0.0845576 16.3831 -0.0833112 16.0481 0.253274C15.7131 0.589817 15.7144 1.13416 16.051 1.46911L19.0671 4.47061H0.859733C0.384903 4.47061 0 4.85551 0 5.33034C0 5.80517 0.384903 6.19008 0.859733 6.19008H19.067L16.051 9.19158C15.7145 9.52653 15.7132 10.0709 16.0481 10.4074C16.3831 10.744 16.9275 10.7452 17.264 10.4103L21.7563 5.93972C21.7565 5.93946 21.7568 5.93916 21.757 5.93891C22.0938 5.60284 22.0927 5.05673 21.757 4.72178Z" fill="#8D8638"/>
</svg>
