<svg width="67" height="67" viewBox="0 0 67 67" fill="none" xmlns="http://www.w3.org/2000/svg">
<rect x="0.5" y="0.5" width="66" height="66" fill="white" stroke="black"/>
<path d="M37.0238 28.6918C35.1901 30.5255 32.7031 31.5557 30.1099 31.5557C27.5166 31.5557 25.0296 30.5255 23.1959 28.6918C21.3622 26.8581 20.332 24.3711 20.332 21.7778C20.332 19.1846 21.3622 16.6976 23.1959 14.8639C25.0296 13.0302 27.5166 12 30.1099 12C32.7031 12 35.1901 13.0302 37.0238 14.8639C38.8575 16.6976 39.8877 19.1846 39.8877 21.7778C39.8877 24.3711 38.8575 26.8581 37.0238 28.6918Z" stroke="black" stroke-width="1.29874" stroke-linecap="round" stroke-linejoin="round"/>
<path d="M54.5635 44.4622C54.5632 45.9331 53.9816 47.3442 52.9453 48.388C50.5595 50.7933 48.2446 53.3014 45.7683 55.6187C45.4917 55.8713 45.1286 56.0078 44.7541 56.0001C44.3797 55.9924 44.0225 55.8409 43.7566 55.5772L36.6236 48.3904C35.5862 47.3463 35.0039 45.9341 35.0039 44.4622C35.0039 42.9903 35.5862 41.5781 36.6236 40.534C37.141 40.0124 37.7566 39.5984 38.4348 39.3159C39.113 39.0334 39.8404 38.888 40.5751 38.888C41.3098 38.888 42.0372 39.0334 42.7154 39.3159C43.3936 39.5984 44.0091 40.0124 44.5266 40.534L44.7857 40.7955L45.0448 40.534C45.8219 39.7502 46.8144 39.2151 47.8963 38.9967C48.9782 38.7784 50.1006 38.8866 51.1208 39.3076C52.141 39.7287 53.0131 40.4435 53.6261 41.3613C54.2391 42.2792 54.5654 43.3585 54.5635 44.4622Z" stroke="black" stroke-width="1.29874" stroke-linejoin="round"/>
<path d="M13 51.1119V48.6675C12.9994 45.7805 13.7293 42.9403 15.1216 40.4113C16.514 37.8823 18.5236 35.7467 20.9634 34.2033C23.4032 32.6599 26.1938 31.7589 29.0754 31.5841C31.9571 31.4094 34.8362 31.9666 37.4446 33.2038" stroke="black" stroke-width="1.29874" stroke-linecap="round" stroke-linejoin="round"/>
</svg>
