<?xml version="1.0" standalone="no"?>
<!DOCTYPE svg PUBLIC "-//W3C//DTD SVG 20010904//EN"
 "http://www.w3.org/TR/2001/REC-SVG-20010904/DTD/svg10.dtd">
<svg version="1.0" xmlns="http://www.w3.org/2000/svg"
 width="512.000000pt" height="512.000000pt" viewBox="0 0 512.000000 512.000000"
 preserveAspectRatio="xMidYMid meet">

<g transform="translate(0.000000,512.000000) scale(0.100000,-0.100000)"
fill="#000000" stroke="none">
<path d="M1400 5109 c-390 -41 -757 -186 -988 -393 -150 -134 -235 -259 -293
-431 l-24 -70 -3 -1160 c-3 -1260 -4 -1227 53 -1366 91 -226 317 -444 599
-579 117 -56 276 -111 394 -136 l82 -17 0 -434 c0 -491 0 -494 67 -513 27 -8
498 -10 1688 -8 1602 3 1651 4 1700 22 173 67 302 206 340 367 22 97 22 2371
-1 2469 -29 124 -122 248 -235 315 -127 74 -72 70 -886 73 l-733 3 0 457 c0
478 -3 513 -47 632 -190 507 -949 848 -1713 769z m448 -209 c551 -58 996 -338
1088 -684 18 -68 18 -198 -1 -270 -83 -319 -462 -579 -966 -665 -753 -129
-1525 184 -1654 669 -19 73 -19 203 1 271 61 209 223 378 490 512 159 80 390
146 584 166 109 12 350 12 458 1z m-1315 -1547 c209 -141 488 -243 787 -289
105 -17 251 -18 1700 -24 l1585 -5 45 -24 c61 -32 107 -76 138 -136 24 -44 27
-61 27 -145 0 -87 -3 -100 -30 -149 -17 -31 -51 -71 -78 -93 -93 -73 31 -68
-1772 -68 -1185 0 -1631 -3 -1655 -11 -60 -22 -60 -17 -60 -658 l0 -580 -87
24 c-402 108 -684 309 -797 568 l-31 72 -3 859 -3 858 82 -75 c44 -42 113 -97
152 -124z m2417 47 l0 -150 -202 0 -203 1 39 22 c107 61 219 141 286 205 41
39 76 71 78 72 1 0 2 -67 2 -150z m1882 -2869 c-5 -3 -12 -28 -15 -55 -9 -63
-51 -139 -101 -182 -61 -52 -131 -74 -236 -74 l-89 0 -3 259 c-3 257 -3 260
-27 285 -30 32 -71 41 -117 26 -59 -20 -64 -43 -64 -325 l0 -245 -189 0 -190
0 -3 254 c-3 239 -4 256 -24 282 -28 38 -67 49 -115 35 -66 -20 -69 -34 -69
-321 l0 -250 -195 0 -195 0 0 260 0 261 -24 24 c-45 45 -107 45 -152 0 l-24
-24 0 -261 0 -260 -195 0 -195 0 0 250 c0 287 -3 301 -69 321 -48 14 -87 3
-115 -35 -20 -26 -21 -43 -24 -282 l-3 -254 -190 0 -189 0 0 245 c0 282 -5
305 -64 325 -46 15 -87 6 -117 -26 -24 -25 -24 -28 -27 -285 l-3 -259 -179 0
-180 0 0 995 0 995 1588 2 1587 3 72 26 c40 15 88 36 105 48 l33 20 3 -886 c1
-488 -2 -889 -6 -892z"/>
<path d="M1548 4448 c-378 -34 -569 -363 -340 -586 296 -288 934 -139 931 218
0 82 -23 138 -82 206 -106 120 -298 181 -509 162z m220 -223 c71 -21 136 -67
156 -109 17 -35 16 -38 -1 -74 -22 -46 -104 -97 -181 -113 -92 -19 -226 -8
-299 25 -135 61 -163 149 -71 220 92 69 260 91 396 51z"/>
</g>
</svg>
