<svg version="1.0" xmlns="http://www.w3.org/2000/svg" width="512.000000pt" height="512.000000pt" viewBox="0 0 512.000000 512.000000" preserveAspectRatio="xMidYMid meet">

<g transform="translate(0.000000,512.000000) scale(0.100000,-0.100000)" fill="#000000" stroke="none">
<path d="M2370 5110 c-355 -37 -670 -146 -949 -330 -435 -286 -716 -688 -818
-1169 -25 -117 -27 -143 -27 -371 0 -225 2 -255 26 -365 44 -208 110 -344 226
-467 100 -106 246 -193 382 -228 25 -6 53 -13 62 -16 37 -11 108 178 108 286
0 83 -21 141 -104 285 -89 156 -111 217 -127 355 -20 180 6 400 68 575 177
491 663 882 1208 970 119 20 350 19 456 0 228 -43 422 -136 601 -289 309 -265
430 -806 312 -1394 -109 -547 -394 -937 -742 -1018 -92 -22 -272 -14 -362 14
-123 40 -220 131 -252 235 -8 25 -13 93 -12 167 1 154 19 236 137 620 47 151
95 320 107 375 28 131 37 276 20 355 -34 158 -157 261 -349 291 -261 40 -506
-182 -597 -540 -60 -236 -43 -515 42 -683 l26 -51 -16 -81 c-9 -45 -50 -211
-91 -371 -41 -159 -99 -384 -129 -500 -94 -364 -152 -671 -176 -935 -19 -215
-11 -617 16 -793 l6 -37 41 32 c69 54 176 167 238 249 202 273 352 682 470
1279 18 91 34 167 36 169 1 2 74 -43 160 -102 276 -186 382 -222 648 -221 124
1 183 6 262 23 181 38 351 111 502 214 97 66 289 258 364 363 264 373 406 841
407 1340 0 336 -51 588 -171 829 -241 490 -753 823 -1414 921 -120 18 -477 26
-595 14z"></path>
</g>
</svg>