<svg width="20" height="20" viewBox="0 0 20 20" fill="none" xmlns="http://www.w3.org/2000/svg">
<path d="M17.4743 0.0111794H2.52571C1.13143 0.0111794 0 1.11794 0 2.48183C0 3.07434 0.217143 3.64449 0.605714 4.09167L6.51429 10.8329C6.73143 11.09 6.85714 11.4142 6.85714 11.7384V18.0436C6.85714 18.7255 7.21143 19.3516 7.80571 19.7093C8.12571 19.8994 8.49143 20 8.85714 20C9.16571 20 9.46286 19.9329 9.74857 19.7876L12.0343 18.6696C12.72 18.3343 13.1429 17.6635 13.1429 16.9145V11.7272C13.1429 11.3918 13.2686 11.0676 13.4857 10.8217L19.3943 4.08049C19.7829 3.63331 20 3.06316 20 2.47065C20 1.10676 18.8686 0 17.4743 0V0.0111794ZM18.0914 2.99609L12.1829 9.73728C11.6914 10.2963 11.4286 11.0006 11.4286 11.7384V16.9257C11.4286 17.0375 11.3714 17.1269 11.2686 17.1716L8.98286 18.2895C8.85714 18.3566 8.75429 18.3119 8.70857 18.2784C8.66286 18.2448 8.57143 18.1778 8.57143 18.0436V11.7384C8.57143 11.0006 8.30857 10.2963 7.81714 9.73728L1.90857 2.99609C1.78286 2.85075 1.71429 2.67188 1.71429 2.48183C1.71429 2.04584 2.08 1.68809 2.52571 1.68809H17.4743C17.92 1.68809 18.2857 2.04584 18.2857 2.48183C18.2857 2.67188 18.2171 2.85075 18.0914 2.99609Z" fill="#180D05"/>
</svg>
