<?xml version="1.0" standalone="no"?>
<!DOCTYPE svg PUBLIC "-//W3C//DTD SVG 20010904//EN"
 "http://www.w3.org/TR/2001/REC-SVG-20010904/DTD/svg10.dtd">
<svg version="1.0" xmlns="http://www.w3.org/2000/svg"
 width="512.000000pt" height="512.000000pt" viewBox="0 0 512.000000 512.000000"
 preserveAspectRatio="xMidYMid meet">

<g transform="translate(0.000000,512.000000) scale(0.100000,-0.100000)"
fill="#000000" stroke="none">
<path d="M2235 5105 c-311 -60 -551 -271 -657 -575 l-33 -95 -3 -473 c-4 -549
-5 -541 82 -627 45 -45 91 -71 162 -90 6 -2 15 -25 19 -51 10 -68 56 -193 96
-261 19 -32 73 -98 122 -146 92 -94 100 -112 73 -166 -8 -15 -25 -35 -38 -43
-13 -8 -156 -59 -318 -113 -162 -54 -329 -112 -370 -130 -136 -57 -261 -155
-349 -274 -95 -127 -120 -199 -230 -636 -54 -220 -102 -425 -106 -455 -14
-120 43 -275 137 -370 61 -62 114 -93 219 -129 l84 -28 32 -87 c51 -137 102
-186 243 -231 39 -13 65 -29 89 -58 19 -22 50 -46 68 -53 48 -21 1958 -21
2006 0 18 7 49 31 68 53 24 29 50 45 89 58 141 45 192 94 243 231 l32 87 84
28 c105 36 153 64 217 128 96 96 153 250 139 371 -4 30 -51 235 -106 455 -88
354 -105 411 -149 500 -83 170 -223 311 -386 390 -39 19 -212 82 -385 140
-173 58 -325 111 -338 117 -32 17 -61 66 -61 102 0 22 15 42 70 93 116 108
202 259 233 414 l12 60 52 18 c90 30 158 96 188 180 22 64 22 895 0 1001 -40
189 -146 364 -295 487 -74 61 -235 143 -330 169 -88 23 -598 30 -705 9z m700
-188 c198 -66 353 -211 430 -404 13 -32 27 -76 31 -97 l7 -39 -29 20 c-44 31
-181 98 -249 121 -186 63 -334 86 -565 86 -231 0 -379 -23 -565 -86 -68 -23
-205 -90 -249 -121 l-29 -20 7 39 c29 155 165 346 310 433 66 39 167 78 240
91 28 5 170 7 316 6 257 -2 268 -3 345 -29z m-100 -502 c134 -22 229 -51 340
-104 90 -43 215 -125 215 -140 0 -4 -13 -21 -29 -39 -39 -42 -84 -43 -155 -3
-179 102 -498 155 -782 132 -214 -18 -341 -50 -488 -122 -99 -49 -137 -51
-177 -7 -16 18 -29 35 -29 38 2 17 111 89 205 135 145 72 283 107 500 129 72
7 308 -4 400 -19z m-11 -341 c48 -8 125 -27 170 -42 79 -26 81 -28 84 -62 5
-57 31 -158 53 -211 27 -61 68 -89 133 -89 87 0 146 -51 146 -125 0 -83 -59
-133 -158 -134 -65 -1 -87 -29 -96 -121 -22 -220 -144 -402 -331 -494 -172
-86 -358 -86 -530 0 -187 92 -309 274 -331 494 -9 92 -31 120 -96 121 -99 1
-158 51 -158 134 0 74 59 125 146 125 65 0 106 28 133 89 25 59 51 164 51 209
0 29 5 35 38 49 177 74 494 98 746 57z m-1035 -144 c25 -4 50 -6 58 -3 16 6
17 -13 2 -56 -8 -24 -17 -31 -37 -31 -15 -1 -44 -7 -64 -14 l-38 -14 0 70 c0
63 2 69 18 63 9 -3 37 -10 61 -15z m1621 -49 l0 -69 -37 14 c-21 7 -50 13 -65
14 -20 0 -29 7 -37 31 -19 54 -15 59 37 60 26 0 56 4 67 9 34 14 35 12 35 -59z
m-1053 -1293 c111 -32 295 -32 407 0 43 12 79 21 80 20 1 -2 11 -23 21 -48 11
-25 42 -66 68 -93 l49 -47 -57 -55 c-199 -195 -535 -194 -733 2 l-53 53 48 48
c27 26 58 68 69 94 10 27 20 48 21 48 2 0 38 -10 80 -22z m-343 -278 c77 -101
191 -181 321 -226 72 -26 93 -28 220 -29 128 0 148 2 228 29 131 43 253 131
339 245 l25 34 249 -83 c137 -45 281 -98 320 -117 138 -66 252 -184 320 -328
28 -60 111 -353 102 -359 -18 -12 -128 -51 -188 -66 -75 -19 -210 -40 -256
-40 l-24 0 0 180 c0 229 -14 269 -105 311 -38 18 -90 19 -1005 19 -921 0 -967
-1 -1006 -19 -23 -10 -54 -36 -70 -57 l-29 -37 -3 -199 -4 -198 -23 0 c-41 0
-177 21 -240 36 -50 13 -193 61 -203 69 -9 8 80 320 106 371 65 129 156 226
279 298 52 30 559 213 598 215 6 1 28 -22 49 -49z m206 -875 c0 -303 3 -320
59 -368 48 -40 90 -47 281 -47 191 0 233 7 281 47 56 48 59 65 59 368 l0 275
300 0 300 0 0 -770 0 -770 -940 0 -940 0 0 770 0 770 300 0 300 0 0 -275z
m510 15 l0 -260 -170 0 -170 0 0 260 0 260 170 0 170 0 0 -260z m-1600 -204
c56 -14 151 -31 211 -38 l109 -12 0 -134 c0 -104 -3 -133 -12 -129 -141 60
-216 87 -244 87 -69 0 -108 -78 -66 -130 10 -12 66 -41 124 -65 59 -23 127
-54 152 -69 l46 -27 0 -219 0 -219 -28 8 c-66 19 -83 43 -131 192 -12 37 -30
74 -40 83 -9 9 -68 32 -129 51 -96 31 -118 42 -165 85 -110 100 -123 192 -63
430 20 80 39 151 41 157 3 9 15 8 48 -6 25 -11 90 -31 147 -45z m3096 -106
c60 -242 47 -329 -63 -430 -46 -43 -69 -54 -166 -85 -62 -20 -120 -44 -129
-52 -9 -8 -29 -52 -44 -97 -41 -126 -51 -143 -98 -166 -23 -11 -45 -20 -49
-20 -4 0 -6 100 -5 222 l3 223 85 42 c47 23 113 52 147 64 100 33 133 100 77
156 -39 39 -83 30 -301 -64 -10 -4 -13 26 -13 131 l0 136 33 0 c95 0 341 51
427 88 25 11 48 17 51 13 4 -3 24 -76 45 -161z"/>
<path d="M1829 667 c-9 -7 -21 -22 -27 -34 -16 -29 -15 -211 1 -243 28 -55 94
-64 137 -18 18 19 20 35 20 140 0 113 -1 120 -25 143 -27 27 -79 33 -106 12z"/>
<path d="M2159 654 c-22 -23 -24 -35 -27 -132 -3 -119 6 -149 52 -170 32 -16
69 -9 96 18 18 18 20 34 20 140 0 115 -1 122 -25 145 -33 34 -83 34 -116 -1z"/>
</g>
</svg>
