<svg width="19" height="20" viewBox="0 0 19 20" fill="none" xmlns="http://www.w3.org/2000/svg" aria-hidden="true">
  <path d="M14.85 19.25H4.125C1.85625 19.25 0 17.3937 0 15.125V14.9875L0.4125 3.9875C0.48125 1.71875 2.3375 0 4.5375 0H14.4375C16.6375 0 18.4938 1.71875 18.5625 3.9875L18.975 14.9875C19.0438 16.0875 18.6313 17.1187 17.875 17.9438C17.1188 18.7688 16.0875 19.25 14.9875 19.25C14.9875 19.25 14.9187 19.25 14.85 19.25ZM4.5375 1.375C3.025 1.375 1.85625 2.54375 1.7875 3.9875L1.375 15.125C1.375 16.6375 2.6125 17.875 4.125 17.875H14.9875C15.7438 17.875 16.4312 17.5312 16.9125 16.9813C17.3938 16.4312 17.6688 15.7437 17.6688 14.9875L17.2563 3.9875C17.1875 2.475 16.0188 1.375 14.5063 1.375H4.5375Z" fill="currentColor"/>
  <path d="M9.4873 8.25C6.80605 8.25 4.6748 6.11875 4.6748 3.4375C4.6748 3.025 4.9498 2.75 5.3623 2.75C5.7748 2.75 6.0498 3.025 6.0498 3.4375C6.0498 5.3625 7.5623 6.875 9.4873 6.875C11.4123 6.875 12.9248 5.3625 12.9248 3.4375C12.9248 3.025 13.1998 2.75 13.6123 2.75C14.0248 2.75 14.2998 3.025 14.2998 3.4375C14.2998 6.11875 12.1686 8.25 9.4873 8.25Z" fill="currentColor"/>
</svg>
