<svg width="13" height="13" viewBox="0 0 13 13" fill="none" xmlns="http://www.w3.org/2000/svg">
<path d="M7.89648 13H3.04688C1.92681 13 1.01562 12.0888 1.01562 10.9688V4.08789C1.01562 2.96783 1.92681 2.05664 3.04688 2.05664H7.89648C9.01655 2.05664 9.92773 2.96783 9.92773 4.08789V10.9688C9.92773 12.0888 9.01655 13 7.89648 13ZM3.04688 3.07227C2.48689 3.07227 2.03125 3.52791 2.03125 4.08789V10.9688C2.03125 11.5287 2.48689 11.9844 3.04688 11.9844H7.89648C8.45647 11.9844 8.91211 11.5287 8.91211 10.9688V4.08789C8.91211 3.52791 8.45647 3.07227 7.89648 3.07227H3.04688ZM11.959 9.69922V2.03125C11.959 0.911186 11.0478 0 9.92773 0H4.29102C4.01053 0 3.7832 0.227325 3.7832 0.507812C3.7832 0.7883 4.01053 1.01562 4.29102 1.01562H9.92773C10.4877 1.01562 10.9434 1.47127 10.9434 2.03125V9.69922C10.9434 9.97971 11.1707 10.207 11.4512 10.207C11.7317 10.207 11.959 9.97971 11.959 9.69922Z" fill="white"/>
</svg>
