<svg width="19" height="19" viewBox="0 0 19 19" fill="none" xmlns="http://www.w3.org/2000/svg">
<path d="M18.2812 8.22422L17.7337 7.67672C17.5088 7.45172 17.3731 6.94672 17.4556 6.63859L17.6556 5.89047C17.7669 5.47734 17.7094 5.04422 17.4937 4.67234C17.2787 4.29984 16.9331 4.03422 16.5194 3.92359L15.7719 3.72297C15.4644 3.64047 15.0944 3.27047 15.0112 2.96359L14.8112 2.21547C14.5875 1.38047 13.6869 0.854219 12.8438 1.07922L12.0963 1.27984C11.8094 1.35609 11.2738 1.21672 11.0588 1.00172L10.5106 0.454219C9.905 -0.151406 8.84437 -0.151406 8.23875 0.454219L7.69063 1.00234C7.47563 1.21734 6.94 1.35672 6.6525 1.28047L5.90563 1.07984C5.0625 0.854219 4.16188 1.38047 3.93813 2.21609L3.73812 2.96297C3.65562 3.27172 3.28562 3.64109 2.97812 3.72359L2.23 3.92422C1.81625 4.03484 1.47 4.30109 1.255 4.67359C1.04 5.04609 0.983125 5.47859 1.09437 5.89047L1.29375 6.63922C1.37625 6.94734 1.24125 7.45172 1.01625 7.67734L0.46875 8.22484C0.166875 8.52734 0 8.93109 0 9.36047C0 9.78984 0.166875 10.1936 0.469375 10.4961L1.01688 11.0436C1.24188 11.2686 1.3775 11.7736 1.295 12.0817L1.095 12.8298C0.98375 13.243 1.04125 13.6761 1.25687 14.048C1.47187 14.4198 1.8175 14.6861 2.23125 14.7967L2.97812 14.9967C3.28625 15.0792 3.65625 15.4492 3.73937 15.7561L3.93875 16.5042C4.1625 17.3392 5.06625 17.8636 5.90563 17.6398L6.65375 17.4398C6.94125 17.3636 7.47688 17.503 7.69187 17.718L8.23938 18.2648C8.54187 18.5686 8.94562 18.7355 9.37562 18.7355C9.80562 18.7355 10.2094 18.5686 10.5113 18.2667L11.0594 17.7192C11.275 17.5042 11.8125 17.3661 12.0975 17.4411L12.8444 17.6411C12.98 17.6773 13.1187 17.6955 13.2581 17.6955H13.2588C13.985 17.6955 14.6244 17.2061 14.8119 16.5048L15.0112 15.7586C15.0944 15.4498 15.4644 15.0805 15.7719 14.9973L16.5194 14.7973C16.9331 14.6867 17.2794 14.4198 17.4944 14.0473C17.7094 13.6748 17.7662 13.2423 17.655 12.8305L17.4556 12.0817C17.3731 11.7736 17.5081 11.2692 17.7331 11.0436L18.2806 10.4961C18.5831 10.1936 18.75 9.78984 18.75 9.36047C18.7506 8.92984 18.5837 8.52672 18.2812 8.22422ZM5 6.86047C5 5.82672 5.84125 4.98547 6.875 4.98547C7.90875 4.98547 8.75 5.82672 8.75 6.86047C8.75 7.89422 7.90875 8.73547 6.875 8.73547C5.84125 8.73547 5 7.89422 5 6.86047ZM7.31687 12.3023C7.195 12.4242 7.035 12.4855 6.875 12.4855C6.715 12.4855 6.555 12.4242 6.43313 12.3023C6.18875 12.058 6.18875 11.663 6.43313 11.4186L11.4331 6.41859C11.6775 6.17422 12.0725 6.17422 12.3169 6.41859C12.5613 6.66297 12.5613 7.05797 12.3169 7.30234L7.31687 12.3023ZM11.875 13.7355C10.8413 13.7355 10 12.8942 10 11.8605C10 10.8267 10.8413 9.98547 11.875 9.98547C12.9087 9.98547 13.75 10.8267 13.75 11.8605C13.75 12.8942 12.9087 13.7355 11.875 13.7355Z" fill="#180D05"/>
<path d="M11.875 12.4854C12.2202 12.4854 12.5 12.2055 12.5 11.8604C12.5 11.5152 12.2202 11.2354 11.875 11.2354C11.5298 11.2354 11.25 11.5152 11.25 11.8604C11.25 12.2055 11.5298 12.4854 11.875 12.4854Z" fill="#180D05"/>
<path d="M6.875 7.48535C7.22018 7.48535 7.5 7.20553 7.5 6.86035C7.5 6.51517 7.22018 6.23535 6.875 6.23535C6.52982 6.23535 6.25 6.51517 6.25 6.86035C6.25 7.20553 6.52982 7.48535 6.875 7.48535Z" fill="#180D05"/>
</svg>
