<?xml version="1.0" standalone="no"?>
<!DOCTYPE svg PUBLIC "-//W3C//DTD SVG 20010904//EN"
 "http://www.w3.org/TR/2001/REC-SVG-20010904/DTD/svg10.dtd">
<svg version="1.0" xmlns="http://www.w3.org/2000/svg"
 width="512.000000pt" height="512.000000pt" viewBox="0 0 512.000000 512.000000"
 preserveAspectRatio="xMidYMid meet">

<g transform="translate(0.000000,512.000000) scale(0.100000,-0.100000)"
fill="#000000" stroke="none">
<path d="M2215 4693 c-395 -31 -753 -169 -1060 -408 -497 -388 -782 -1039
-725 -1660 54 -602 362 -1123 855 -1448 585 -385 1340 -422 1954 -96 94 50
221 132 275 176 l29 24 416 -414 c433 -431 441 -437 521 -437 78 0 168 62 196
135 20 53 16 122 -10 177 -11 23 -171 188 -422 434 -360 353 -403 399 -392
414 226 309 348 603 393 943 86 666 -187 1335 -717 1754 -362 287 -864 442
-1313 406z m385 -449 c118 -19 300 -79 411 -134 424 -213 717 -604 805 -1075
25 -134 25 -401 0 -530 -121 -617 -584 -1080 -1201 -1201 -129 -25 -396 -25
-530 0 -534 99 -965 466 -1145 971 -162 457 -91 964 191 1365 63 89 199 232
288 303 97 77 260 171 376 216 262 103 524 130 805 85z"/>
<path d="M2249 3812 c-39 -20 -62 -41 -84 -77 l-30 -48 -3 -348 -3 -348 -347
-3 -347 -3 -47 -28 c-121 -71 -142 -234 -44 -332 63 -62 81 -65 454 -65 l331
0 3 -347 c3 -334 4 -350 25 -388 41 -77 105 -115 193 -115 84 0 161 53 194
132 13 31 16 93 16 378 l0 340 340 0 c285 0 347 3 378 16 79 33 132 110 132
194 0 88 -38 152 -115 193 -38 21 -54 22 -387 25 l-348 3 0 331 c0 373 -3 391
-65 453 -69 69 -159 83 -246 37z"/>
</g>
</svg>
