<svg width="21" height="21" viewBox="0 0 21 21" fill="none" xmlns="http://www.w3.org/2000/svg">
<path d="M13.6132 19.1211H7.0132C6.35288 19.1115 5.72049 18.8531 5.2425 18.3974C4.76451 17.9417 4.47615 17.3224 4.43508 16.6633L3.65305 4.76953C3.64904 4.6833 3.66216 4.59713 3.69167 4.516C3.72117 4.43487 3.76646 4.36039 3.82492 4.29688C3.88515 4.23105 3.95807 4.17808 4.0393 4.14116C4.12053 4.10424 4.20838 4.08413 4.29758 4.08203H16.3288C16.4172 4.08184 16.5047 4.09982 16.5858 4.13486C16.667 4.16991 16.74 4.22126 16.8005 4.28574C16.8609 4.35022 16.9075 4.42644 16.9372 4.50967C16.9669 4.59289 16.9793 4.68135 16.9734 4.76953L16.2257 16.6633C16.1842 17.3283 15.891 17.9525 15.4057 18.4091C14.9204 18.8656 14.2795 19.1202 13.6132 19.1211ZM5.01945 5.3711L5.68117 16.5859C5.70304 16.9241 5.85297 17.2412 6.10044 17.4727C6.34792 17.7043 6.67433 17.8327 7.0132 17.832H13.6132C13.9515 17.8307 14.2768 17.7015 14.5238 17.4704C14.7708 17.2393 14.9214 16.9234 14.9452 16.5859L15.6413 5.41406L5.01945 5.3711Z" fill="#D32628"/>
<path d="M18.0469 5.37109H2.57812C2.40718 5.37109 2.24325 5.30319 2.12237 5.18231C2.0015 5.06144 1.93359 4.8975 1.93359 4.72656C1.93359 4.55562 2.0015 4.39168 2.12237 4.27081C2.24325 4.14994 2.40718 4.08203 2.57812 4.08203H18.0469C18.2178 4.08203 18.3818 4.14994 18.5026 4.27081C18.6235 4.39168 18.6914 4.55562 18.6914 4.72656C18.6914 4.8975 18.6235 5.06144 18.5026 5.18231C18.3818 5.30319 18.2178 5.37109 18.0469 5.37109Z" fill="#D32628"/>
<path d="M12.8906 5.37109H7.73437C7.56413 5.36887 7.40148 5.30025 7.28108 5.17985C7.16069 5.05946 7.09207 4.89681 7.08984 4.72656V3.17969C7.10074 2.73867 7.28079 2.31873 7.59273 2.00679C7.90467 1.69485 8.32461 1.5148 8.76562 1.50391H11.8594C12.3077 1.51512 12.7339 1.70114 13.047 2.02226C13.3601 2.34338 13.5353 2.77416 13.5352 3.22266V4.72656C13.5329 4.89681 13.4643 5.05946 13.3439 5.17985C13.2235 5.30025 13.0609 5.36887 12.8906 5.37109ZM8.37891 4.08203H12.2461V3.22266C12.2461 3.12009 12.2053 3.02173 12.1328 2.9492C12.0603 2.87668 11.9619 2.83594 11.8594 2.83594H8.76562C8.66306 2.83594 8.5647 2.87668 8.49217 2.9492C8.41965 3.02173 8.37891 3.12009 8.37891 3.22266V4.08203Z" fill="#D32628"/>
<path d="M12.8906 15.6836C12.7204 15.6814 12.5577 15.6127 12.4373 15.4924C12.3169 15.372 12.2483 15.2093 12.2461 15.0391V8.16406C12.2461 7.99312 12.314 7.82918 12.4349 7.70831C12.5557 7.58744 12.7197 7.51953 12.8906 7.51953C13.0616 7.51953 13.2255 7.58744 13.3464 7.70831C13.4673 7.82918 13.5352 7.99312 13.5352 8.16406V15.0391C13.5329 15.2093 13.4643 15.372 13.3439 15.4924C13.2235 15.6127 13.0609 15.6814 12.8906 15.6836Z" fill="#D32628"/>
<path d="M7.73437 15.6836C7.56413 15.6814 7.40148 15.6127 7.28108 15.4924C7.16069 15.372 7.09207 15.2093 7.08984 15.0391V8.16406C7.08984 7.99312 7.15775 7.82918 7.27862 7.70831C7.3995 7.58744 7.56343 7.51953 7.73437 7.51953C7.90532 7.51953 8.06925 7.58744 8.19013 7.70831C8.311 7.82918 8.37891 7.99312 8.37891 8.16406V15.0391C8.37668 15.2093 8.30806 15.372 8.18767 15.4924C8.06727 15.6127 7.90462 15.6814 7.73437 15.6836Z" fill="#D32628"/>
<path d="M10.3125 15.6836C10.1423 15.6814 9.9796 15.6127 9.85921 15.4924C9.73882 15.372 9.67019 15.2093 9.66797 15.0391V8.16406C9.66797 7.99312 9.73587 7.82918 9.85675 7.70831C9.97762 7.58744 10.1416 7.51953 10.3125 7.51953C10.4834 7.51953 10.6474 7.58744 10.7683 7.70831C10.8891 7.82918 10.957 7.99312 10.957 8.16406V15.0391C10.9548 15.2093 10.8862 15.372 10.7658 15.4924C10.6454 15.6127 10.4827 15.6814 10.3125 15.6836Z" fill="#D32628"/>
</svg>
