<svg width="11" height="6" viewBox="0 0 11 6" fill="none" xmlns="http://www.w3.org/2000/svg">
<path d="M5.23003 5.97674C5.13175 5.9773 5.03434 5.95847 4.94336 5.92131C4.85238 5.88415 4.76964 5.8294 4.69986 5.76019L0.219601 1.27993C0.078993 1.13932 0 0.948616 0 0.749766C0 0.550915 0.078993 0.36021 0.219601 0.219601C0.36021 0.078993 0.550915 0 0.749766 0C0.948616 0 1.13932 0.078993 1.27993 0.219601L5.23003 4.17717L9.18012 0.227069C9.32297 0.104738 9.50672 0.0408144 9.69465 0.0480733C9.88258 0.0553322 10.0608 0.133239 10.1938 0.266224C10.3268 0.399209 10.4047 0.577477 10.412 0.765406C10.4192 0.953336 10.3553 1.13708 10.233 1.27993L5.75272 5.76019C5.61364 5.89814 5.42592 5.97591 5.23003 5.97674Z" fill="white"/>
</svg>
