<?xml version="1.0" standalone="no"?>
<!DOCTYPE svg PUBLIC "-//W3C//DTD SVG 20010904//EN"
 "http://www.w3.org/TR/2001/REC-SVG-20010904/DTD/svg10.dtd">
<svg version="1.0" xmlns="http://www.w3.org/2000/svg"
 width="512.000000pt" height="630.000000pt" viewBox="0 0 512.000000 630.000000"
 preserveAspectRatio="xMidYMid meet">

<g transform="translate(0.000000,630.000000) scale(0.100000,-0.100000)"
fill="#000000" stroke="none">
<path d="M2360 6289 c-431 -50 -848 -268 -1131 -593 -185 -211 -318 -463 -384
-724 -47 -186 -55 -279 -55 -668 l0 -361 -153 -6 c-163 -5 -218 -17 -318 -67
-150 -76 -269 -232 -305 -399 -11 -55 -14 -311 -14 -1507 0 -1408 0 -1443 20
-1519 55 -213 233 -386 445 -430 106 -22 4085 -22 4190 0 195 41 372 200 437
392 l23 68 3 1455 c2 1031 0 1474 -8 1520 -37 216 -195 391 -420 467 -53 17
-134 18 -1783 21 l-1729 2 5 383 c4 343 7 392 26 479 61 279 178 495 376 694
272 274 597 408 985 406 374 -1 697 -137 965 -406 151 -152 247 -301 320 -496
34 -91 55 -121 103 -148 75 -41 153 -36 220 15 79 60 92 153 38 291 -242 627
-801 1057 -1471 1132 -105 12 -278 11 -385 -1z m2260 -2769 c47 -24 84 -71 99
-125 8 -28 11 -455 11 -1426 0 -1526 3 -1449 -62 -1516 -65 -67 75 -63 -2108
-63 -2183 0 -2043 -4 -2108 63 -65 67 -62 -10 -62 1516 0 971 3 1398 11 1426
15 53 52 101 97 125 36 19 73 19 2060 20 2000 0 2023 0 2062 -20z"/>
<path d="M2433 2341 c-104 -39 -189 -117 -235 -217 -19 -41 -23 -66 -23 -154
0 -99 2 -110 32 -171 39 -80 111 -150 191 -187 50 -24 69 -27 162 -27 99 0
110 2 171 32 80 39 150 111 187 191 24 50 27 69 27 162 0 96 -3 110 -29 165
-39 78 -120 159 -193 192 -79 36 -214 42 -290 14z"/>
</g>
</svg>
