<svg width="24" height="24" viewBox="0 0 24 24" fill="none" xmlns="http://www.w3.org/2000/svg" aria-hidden="true">
  <path d="M7.5 18C8.32843 18 9 18.6716 9 19.5C9 20.3284 8.32843 21 7.5 21C6.67157 21 6 20.3284 6 19.5C6 18.6716 6.67157 18 7.5 18Z" stroke="currentColor" stroke-width="1.45"/>
  <path d="M16.5 18C17.3284 18 18 18.6716 18 19.5C18 20.3284 17.3284 21 16.5 21C15.6716 21 15 20.3284 15 19.5C15 18.6716 15.6716 18 16.5 18Z" stroke="currentColor" stroke-width="1.45"/>
  <path d="M2 3H4.2L6.6 14.4C6.7 14.9 7.2 15.3 7.7 15.3H17.4C17.9 15.3 18.4 14.9 18.5 14.4L20 7.3H5.2" stroke="currentColor" stroke-width="1.45" stroke-linecap="round" stroke-linejoin="round"/>
</svg>
