<svg width="22" height="22" viewBox="0 0 22 22" fill="none" xmlns="http://www.w3.org/2000/svg">
<path d="M11 17.875C3.80308 17.875 0.234953 11.6009 0.086625 11.334C-0.028875 11.1262 -0.028875 10.8737 0.086625 10.6659C0.234953 10.3991 3.80308 4.125 11 4.125C18.1969 4.125 21.765 10.3991 21.9134 10.666C22.0289 10.8738 22.0289 11.1263 21.9134 11.3341C21.765 11.6009 18.1969 17.875 11 17.875ZM1.49652 10.999C2.3143 12.2384 5.52509 16.5 11 16.5C16.4923 16.5 19.6888 12.2418 20.5035 11.001C19.6857 9.76164 16.4749 5.5 11 5.5C5.50773 5.5 2.3112 9.7582 1.49652 10.999ZM11 15.125C8.72541 15.125 6.875 13.2746 6.875 11C6.875 8.72541 8.72541 6.875 11 6.875C13.2746 6.875 15.125 8.72541 15.125 11C15.125 13.2746 13.2746 15.125 11 15.125ZM11 8.25C9.48372 8.25 8.25 9.48372 8.25 11C8.25 12.5163 9.48372 13.75 11 13.75C12.5163 13.75 13.75 12.5163 13.75 11C13.75 9.48372 12.5163 8.25 11 8.25Z" fill="#180D05"/>
</svg>
