<svg width="10" height="10" viewBox="0 0 10 10" fill="none" xmlns="http://www.w3.org/2000/svg">
<path d="M7.45946 0.159839L7.7893 0.487403C7.89231 0.590493 7.94906 0.727648 7.94906 0.874234C7.94906 1.02074 7.89231 1.15806 7.7893 1.26115L4.05252 4.99776L7.79345 8.73869C7.89646 8.84162 7.95312 8.97893 7.95312 9.12544C7.95312 9.27195 7.89646 9.40934 7.79345 9.51235L7.46564 9.84C7.25247 10.0533 6.90523 10.0533 6.69206 9.84L2.22202 5.38598C2.11909 5.28305 2.04657 5.1459 2.04657 4.99809V4.99638C2.04657 4.8498 2.11918 4.71264 2.22202 4.60971L6.67994 0.159839C6.78287 0.0567484 6.92417 0.000163078 7.07068 0C7.21727 0 7.35662 0.0567484 7.45946 0.159839Z" fill="white"/>
</svg>
