<svg width="14" height="22" viewBox="0 0 14 22" fill="none" xmlns="http://www.w3.org/2000/svg">
<path fill-rule="evenodd" clip-rule="evenodd" d="M6.91667 9C5.99667 9 5.25 8.216 5.25 7.25C5.25 6.284 5.99667 5.5 6.91667 5.5C7.83667 5.5 8.58333 6.284 8.58333 7.25C8.58333 8.216 7.83667 9 6.91667 9ZM6.91667 4.625C5.53583 4.625 4.41667 5.80012 4.41667 7.25C4.41667 8.69987 5.53583 9.875 6.91667 9.875C8.2975 9.875 9.41667 8.69987 9.41667 7.25C9.41667 5.80012 8.2975 4.625 6.91667 4.625ZM1.08333 6.90175C1.08333 3.82437 3.80917 1.125 6.91667 1.125C10.0242 1.125 12.75 3.82437 12.75 6.90175C12.75 9.92487 10.6142 13.5019 6.91667 19.6129C3.17583 13.424 1.08333 9.92487 1.08333 6.90175ZM6.91667 0.25C3.41833 0.25 0.25 3.22763 0.25 6.90175C0.25 10.575 3.14083 14.9605 6.91667 21.25C10.6925 14.9605 13.5833 10.575 13.5833 6.90175C13.5833 3.22763 10.4158 0.25 6.91667 0.25Z" fill="black" stroke="black" stroke-width="0.5"/>
</svg>
