<svg width="15" height="15" viewBox="0 0 15 15" fill="none" xmlns="http://www.w3.org/2000/svg">
<path d="M0.75 2.9248C0.75 2.30349 1.25368 1.7998 1.875 1.7998H13.125C13.7463 1.7998 14.25 2.30349 14.25 2.9248C14.25 3.54612 13.7463 4.0498 13.125 4.0498H1.875C1.25368 4.0498 0.75 3.54612 0.75 2.9248Z" fill="white"/>
<path d="M0.75 7.4248C0.75 6.80349 1.25368 6.2998 1.875 6.2998H8.625C9.24631 6.2998 9.75 6.80349 9.75 7.4248C9.75 8.04612 9.24631 8.5498 8.625 8.5498H1.875C1.25368 8.5498 0.75 8.04612 0.75 7.4248Z" fill="white"/>
<path d="M0.75 11.9248C0.75 11.3035 1.25368 10.7998 1.875 10.7998H13.125C13.7463 10.7998 14.25 11.3035 14.25 11.9248C14.25 12.5461 13.7463 13.0498 13.125 13.0498H1.875C1.25368 13.0498 0.75 12.5461 0.75 11.9248Z" fill="white"/>
</svg>
