<svg width="36" height="36" viewBox="0 0 36 36" fill="none" xmlns="http://www.w3.org/2000/svg">
<rect width="36" height="36" transform="matrix(-1 0 0 1 36 0)" fill="#E0E0E0" fill-opacity="0.5"/>
<path d="M9 26.9922V25C9 24.3125 9.13281 23.6641 9.39844 23.0547C9.66406 22.4453 10.0156 21.9141 10.4531 21.4609C10.9062 21.0078 11.4375 20.6523 12.0469 20.3945C12.6562 20.1367 13.3047 20.0078 13.9922 20.0078H22.0078C22.6953 20.0078 23.3438 20.1367 23.9531 20.3945C24.5625 20.6523 25.0938 21.0078 25.5469 21.4609C25.9844 21.9141 26.3359 22.4453 26.6016 23.0547C26.8672 23.6641 27 24.3125 27 25V26.9922C27 27.2734 26.9023 27.5117 26.707 27.707C26.5117 27.9023 26.2734 28 25.9922 28C25.7266 28 25.4961 27.9023 25.3008 27.707C25.1055 27.5117 25.0078 27.2734 25.0078 26.9922V25C25.0078 24.5781 24.9297 24.1875 24.7734 23.8281C24.6172 23.4688 24.3984 23.1562 24.1172 22.8906C23.8516 22.6094 23.5352 22.3906 23.168 22.2344C22.8008 22.0781 22.4141 22 22.0078 22H13.9922C13.5859 22 13.1992 22.0781 12.832 22.2344C12.4648 22.3906 12.1484 22.6094 11.8828 22.8906C11.6016 23.1562 11.3828 23.4688 11.2266 23.8281C11.0703 24.1875 10.9922 24.5781 10.9922 25V26.9922C10.9922 27.2734 10.8945 27.5117 10.6992 27.707C10.5039 27.9023 10.2734 28 10.0078 28C9.72656 28 9.48828 27.9023 9.29297 27.707C9.09766 27.5117 9 27.2734 9 26.9922ZM13.0078 13C13.0078 12.3125 13.1367 11.6641 13.3945 11.0547C13.6523 10.4453 14.0078 9.91406 14.4609 9.46094C14.9141 9.00781 15.4453 8.65234 16.0547 8.39453C16.6641 8.13672 17.3125 8.00781 18 8.00781C18.6875 8.00781 19.3359 8.13672 19.9453 8.39453C20.5547 8.65234 21.0859 9.00781 21.5391 9.46094C21.9922 9.91406 22.3477 10.4453 22.6055 11.0547C22.8633 11.6641 22.9922 12.3125 22.9922 13C22.9922 13.6875 22.8633 14.3359 22.6055 14.9453C22.3477 15.5547 21.9922 16.0859 21.5391 16.5391C21.0859 16.9922 20.5547 17.3477 19.9453 17.6055C19.3359 17.8633 18.6875 17.9922 18 17.9922C17.3125 17.9922 16.6641 17.8633 16.0547 17.6055C15.4453 17.3477 14.9141 16.9922 14.4609 16.5391C14.0078 16.0859 13.6523 15.5547 13.3945 14.9453C13.1367 14.3359 13.0078 13.6875 13.0078 13ZM15 13C15 13.4219 15.0781 13.8125 15.2344 14.1719C15.3906 14.5312 15.6094 14.8438 15.8906 15.1094C16.1562 15.3906 16.4688 15.6094 16.8281 15.7656C17.1875 15.9219 17.5781 16 18 16C18.4219 16 18.8125 15.9219 19.1719 15.7656C19.5312 15.6094 19.8438 15.3906 20.1094 15.1094C20.3906 14.8438 20.6094 14.5312 20.7656 14.1719C20.9219 13.8125 21 13.4219 21 13C21 12.5781 20.9219 12.1875 20.7656 11.8281C20.6094 11.4688 20.3906 11.1562 20.1094 10.8906C19.8438 10.6094 19.5312 10.3906 19.1719 10.2344C18.8125 10.0781 18.4219 10 18 10C17.5781 10 17.1875 10.0781 16.8281 10.2344C16.4688 10.3906 16.1562 10.6094 15.8906 10.8906C15.6094 11.1562 15.3906 11.4688 15.2344 11.8281C15.0781 12.1875 15 12.5781 15 13Z" fill="#232526"/>
</svg>
