<svg width="18" height="18" viewBox="0 0 18 18" fill="none" xmlns="http://www.w3.org/2000/svg">
<path d="M11.0699 16.9877C10.76 16.9828 10.4572 16.8946 10.1933 16.7323C9.92932 16.57 9.71397 16.3395 9.56985 16.0652L6.95985 11.2952C6.90301 11.1861 6.81399 11.097 6.70485 11.0402L1.93485 8.4677C1.63177 8.30306 1.38392 8.05276 1.22227 7.74808C1.06061 7.44339 0.992323 7.09782 1.02593 6.75455C1.05954 6.41127 1.19355 6.08551 1.41123 5.81796C1.6289 5.55041 1.92059 5.35293 2.24985 5.2502L14.6774 1.1027C14.9912 0.991482 15.3301 0.971434 15.6549 1.04488C15.9796 1.11832 16.2769 1.28225 16.5124 1.51769C16.7478 1.75313 16.9117 2.05044 16.9852 2.37519C17.0586 2.69995 17.0386 3.03887 16.9274 3.3527L12.7499 15.7877C12.6449 16.112 12.4465 16.3981 12.1797 16.6102C11.9129 16.8223 11.5895 16.951 11.2499 16.9802L11.0699 16.9877ZM14.9999 2.1752L2.57235 6.3227C2.45388 6.36079 2.34934 6.43312 2.27192 6.53056C2.1945 6.628 2.14768 6.74618 2.13735 6.8702C2.12616 6.99274 2.15153 7.11585 2.21027 7.22398C2.269 7.3321 2.35846 7.42039 2.46735 7.4777L7.23735 10.0502C7.54075 10.2111 7.78893 10.4593 7.94985 10.7627L10.4999 15.5327C10.5572 15.6416 10.6455 15.7311 10.7536 15.7898C10.8617 15.8485 10.9848 15.8739 11.1074 15.8627C11.2314 15.8524 11.3496 15.8056 11.447 15.7281C11.5444 15.6507 11.6168 15.5462 11.6549 15.4277L15.8249 3.0002C15.8734 2.8848 15.8865 2.75756 15.8624 2.6347C15.8383 2.51185 15.7781 2.39896 15.6896 2.31043C15.6011 2.22191 15.4882 2.16176 15.3654 2.13768C15.2425 2.11359 15.1153 2.12666 14.9999 2.1752Z" fill="#746E69"/>
<path d="M7.25268 11.31C7.17859 11.3116 7.10496 11.2978 7.03651 11.2694C6.96807 11.241 6.9063 11.1986 6.85518 11.145C6.80211 11.0933 6.75993 11.0314 6.73113 10.9632C6.70234 10.8949 6.6875 10.8216 6.6875 10.7475C6.6875 10.6734 6.70234 10.6 6.73113 10.5318C6.75993 10.4635 6.80211 10.4017 6.85518 10.35L15.6752 1.49996C15.7846 1.39056 15.933 1.3291 16.0877 1.3291C16.2424 1.3291 16.3908 1.39056 16.5002 1.49996C16.6096 1.60937 16.671 1.75775 16.671 1.91246C16.671 2.06718 16.6096 2.21556 16.5002 2.32496L7.65018 11.145C7.59824 11.1975 7.53633 11.2392 7.46807 11.2676C7.39981 11.2959 7.32658 11.3103 7.25268 11.31Z" fill="#746E69"/>
</svg>
