<svg width="72" height="72" viewBox="0 0 72 72" fill="none" xmlns="http://www.w3.org/2000/svg">
<path d="M19.5001 9C29.0827 9 36.0001 16.9111 35.9998 28.6249C35.9385 45.6443 23.1441 57.6775 4.68641 59.9884C2.97398 60.2028 2.31369 57.8306 3.89062 57.1294C10.973 53.9802 14.5499 49.984 15.012 46.0285C15.3572 43.0733 13.7507 40.4846 11.7335 39.9999C6.50391 38.7433 3.00007 32.2308 3.00007 25.5C3.00007 16.3873 10.3874 9 19.5001 9Z" fill="#59D4DF"/>
<path d="M55.5001 9C65.0827 9 72.0001 16.9111 71.9998 28.6249C71.9385 45.6443 59.1441 57.6775 40.6864 59.9884C38.974 60.2028 38.3137 57.8306 39.8906 57.1294C46.973 53.9802 50.55 49.984 51.012 46.0285C51.3572 43.0733 49.7507 40.4846 47.7335 39.9999C42.5039 38.7433 39.0001 32.2308 39.0001 25.5C39.0001 16.3873 46.3874 9 55.5001 9Z" fill="#59D4DF"/>
</svg>
