<svg width="110" height="110" viewBox="0 0 110 110" fill="none" xmlns="http://www.w3.org/2000/svg">
<rect width="110" height="110" fill="#BFC5CE"/>
<path d="M49.0671 59.3753V72.1658C46.2124 72.1729 43.3905 72.1722 40.543 72.1658V38.0157H49.0343C49.0415 38.1654 49.0536 38.2966 49.0536 38.4271C49.0557 42.4175 49.0579 46.4079 49.0579 50.3977C49.0579 50.8839 49.0636 50.8255 49.4999 50.8255C51.6267 50.8255 53.7534 50.8226 55.8802 50.829C56.0884 50.829 56.2353 50.7684 56.3821 50.6208C58.4276 48.5654 60.4781 46.5149 62.5279 44.4637C64.1192 42.8709 65.7119 41.2796 67.304 39.6876C67.8166 39.175 68.3328 38.6659 68.8418 38.149C68.9431 38.0463 69.0457 37.9993 69.1926 38C70.9957 38.005 72.7981 38.0035 74.6012 38.005C74.666 38.005 74.7302 38.0171 74.8193 38.0257C74.8279 38.1362 74.8428 38.2381 74.8428 38.3401C74.8464 40.0776 74.8457 41.815 74.855 43.5525C74.8564 43.7714 74.7879 43.9297 74.6347 44.0823C72.9022 45.8041 71.1739 47.5302 69.4464 49.257C67.9214 50.782 66.3992 52.3098 64.8764 53.8363C64.5256 54.1878 64.1748 54.5379 63.8247 54.8901C63.772 54.9435 63.7242 55.0013 63.6522 55.0818C63.7335 55.1795 63.8033 55.2765 63.8868 55.3613C64.4849 55.9638 65.0852 56.5641 65.6856 57.1644C66.5154 57.9936 67.3461 58.8227 68.1759 59.6519C69.8899 61.3644 71.6039 63.0763 73.3178 64.7888C73.7763 65.2472 74.2297 65.7114 74.691 66.167C74.8072 66.2817 74.8664 66.4001 74.8664 66.5684C74.8635 68.3437 74.8664 70.1197 74.8678 71.8949C74.8678 71.9698 74.8571 72.0453 74.8485 72.1508C74.7423 72.1615 74.6425 72.1801 74.5427 72.1801C73.1046 72.1822 71.6666 72.183 70.2278 72.183C69.8942 72.183 69.5612 72.1758 69.2276 72.1801C69.0643 72.1822 68.9417 72.128 68.824 72.0097C67.3239 70.5003 65.8203 68.9953 64.3153 67.491C63.1752 66.3509 62.0302 65.2152 60.8902 64.0737C59.5548 62.7376 58.2237 61.3973 56.8905 60.059C56.6951 59.863 56.4941 59.6733 56.3023 59.4737C56.2082 59.376 56.0991 59.3446 55.9686 59.3446C53.752 59.3461 51.5354 59.3461 49.3188 59.3475C49.2454 59.3475 49.1719 59.3625 49.0671 59.3739V59.3753Z" fill="#242623"/>
<path d="M37.478 55.1066C37.4795 58.27 34.86 60.8509 31.6603 60.8053C28.5311 60.7604 25.9851 58.1937 26.0001 55.0538C26.015 51.8626 28.6195 49.3067 31.8136 49.3402C34.9442 49.373 37.518 51.9439 37.478 55.1073V55.1066Z" fill="#242623"/>
</svg>
