<svg width="17" height="16" viewBox="0 0 17 16" fill="none" xmlns="http://www.w3.org/2000/svg">
<path fill-rule="evenodd" clip-rule="evenodd" d="M8.5 0.5C4.08172 0.5 0.5 4.08172 0.5 8.5C0.5 12.9183 4.08172 16.5 8.5 16.5C12.9183 16.5 16.5 12.9183 16.5 8.5C16.5 4.08172 12.9183 0.5 8.5 0.5ZM12.3536 6.35355L7.85355 10.8536C7.65829 11.0488 7.34171 11.0488 7.14645 10.8536L4.64645 8.35355C4.45118 8.15829 4.45118 7.84171 4.64645 7.64645C4.84171 7.45118 5.15829 7.45118 5.35355 7.64645L7.5 9.79289L11.6464 5.64645C11.8417 5.45118 12.1583 5.45118 12.3536 5.64645C12.5488 5.84171 12.5488 6.15829 12.3536 6.35355Z" fill="#3EB2A2"/>
</svg>
